<svg width="143" height="151" fill="none" xmlns="http://www.w3.org/2000/svg"><g clip-path="url(#clip0)"><path d="M126.173 55.923l-69.391 68.335c-3.135 3.088-8.22 3.088-11.356 0L4.593 84.046a7.822 7.822 0 010-11.183l69.39-68.335c3.136-3.088 8.22-3.088 11.356 0l40.834 40.213a7.824 7.824 0 010 11.182z" fill="#8CBAFA"/><path d="M126.173 44.74l-5.097-5.019c2.792 2.75 2.514 7.483-.621 10.571l-69.392 68.335c-3.135 3.088-7.94 3.362-10.733.612l5.096 5.019c3.136 3.088 8.22 3.088 11.356 0l69.391-68.334a7.824 7.824 0 000-11.183z" fill="#5692D8"/><path d="M72.85 20.103l-6.8 6.696a6.665 6.665 0 000 9.532c2.673 2.632 7.007 2.632 9.68 0l6.799-6.696a6.668 6.668 0 000-9.532c-2.673-2.632-7.007-2.632-9.68 0zm59.875 56.002H34.592c-4.435 0-8.03 3.54-8.03 7.906v56.87c0 4.367 3.595 7.907 8.03 7.907h98.133c4.434 0 8.029-3.54 8.029-7.907v-56.87c0-4.366-3.595-7.906-8.029-7.906z" fill="#FFB600"/><path d="M132.725 76.105h-7.187c4.433 0 8.028 3.54 8.028 7.906v56.87c0 4.367-3.595 7.907-8.028 7.907h7.187c4.434 0 8.029-3.54 8.029-7.907v-56.87c0-4.366-3.595-7.906-8.029-7.906z" fill="#FFB600"/><path d="M26.562 93.97h114.192v13.662H26.562V93.969z" fill="#575B7A"/><path d="M133.566 93.97h7.188v13.662h-7.188V93.969z" fill="#252D4C"/><path d="M112.688 129.461v8.426c0 .653.536 1.18 1.198 1.18h13.61c.662 0 1.198-.527 1.198-1.18v-8.426c0-.652-.536-1.179-1.198-1.179h-13.61c-.662 0-1.198.527-1.198 1.179zm-41.034 0v8.426c0 .653.537 1.18 1.198 1.18h28.786c.662 0 1.198-.527 1.198-1.18v-8.426c0-.652-.536-1.179-1.198-1.179H72.852c-.661 0-1.198.527-1.198 1.179z" fill="#E9E9EA"/><path d="M6.181 82.482a5.64 5.64 0 010-8.055l55.04-54.202a2.187 2.187 0 000-3.128 2.269 2.269 0 00-3.176 0L3.005 71.3a10.023 10.023 0 000 14.311l13.863 13.652a2.26 2.26 0 001.587.647c.576 0 1.15-.215 1.589-.647a2.187 2.187 0 000-3.128L6.181 82.482z" fill="#000"/><path d="M50.336 44.05L16.347 77.523a2.189 2.189 0 000 3.129 2.26 2.26 0 001.589.647c.574 0 1.149-.215 1.587-.647L53.512 47.18a2.189 2.189 0 000-3.129 2.272 2.272 0 00-3.176 0zm20.554-3.536a9.134 9.134 0 006.428-2.618l6.8-6.695a8.866 8.866 0 000-12.661c-3.545-3.49-9.313-3.49-12.857 0l-6.8 6.695a8.825 8.825 0 00-2.662 6.331c0 2.39.945 4.64 2.663 6.33a9.134 9.134 0 006.428 2.618zm-3.252-12.15l6.799-6.696c1.793-1.766 4.71-1.766 6.503 0a4.484 4.484 0 010 6.404l-6.8 6.695c-1.791 1.767-4.709 1.767-6.502 0a4.464 4.464 0 01-1.347-3.201c0-1.21.479-2.348 1.347-3.203z" fill="#000"/><path d="M132.724 73.893h-21.621l16.659-16.405a10.024 10.024 0 000-14.312L86.927 2.964A10.29 10.29 0 0079.661 0a10.294 10.294 0 00-7.267 2.964l-8.001 7.88a2.19 2.19 0 000 3.128 2.27 2.27 0 003.176 0l8.003-7.88a5.788 5.788 0 014.09-1.668c1.544 0 2.996.592 4.09 1.668l40.832 40.212a5.64 5.64 0 010 8.055L104.75 73.892H47.988l16.326-16.078a2.188 2.188 0 000-3.128 2.27 2.27 0 00-3.176 0L41.636 73.893h-7.044c-5.666 0-10.276 4.539-10.276 10.118v56.869c0 5.58 4.61 10.12 10.276 10.12h98.132c5.667 0 10.276-4.54 10.276-10.12v-8.174c0-1.223-1.005-2.212-2.246-2.212-1.24 0-2.246.989-2.246 2.212v8.174c0 3.141-2.594 5.696-5.784 5.696H34.592c-3.189 0-5.784-2.555-5.784-5.696v-31.037h109.7v14.015c0 1.221 1.005 2.212 2.246 2.212s2.246-.991 2.246-2.212V84.012c0-5.58-4.609-10.12-10.276-10.12zm-98.132 4.424h98.132c3.189 0 5.784 2.555 5.784 5.695v7.747h-109.7v-7.747c0-3.14 2.595-5.695 5.784-5.695zm-5.784 27.103v-9.237h109.7v9.237h-109.7z" fill="#000"/><path d="M113.886 126.07c-1.898 0-3.444 1.522-3.444 3.391v8.426c0 1.871 1.546 3.392 3.444 3.392h13.61c1.899 0 3.444-1.521 3.444-3.392v-8.426c0-1.869-1.545-3.391-3.444-3.391h-13.61zm12.562 10.785h-11.514v-6.361h11.514v6.361zM72.852 126.07c-1.899 0-3.444 1.522-3.444 3.391v8.426c0 1.871 1.545 3.392 3.444 3.392h28.786c1.899 0 3.444-1.521 3.444-3.392v-8.426c0-1.869-1.545-3.391-3.444-3.391H72.852zm27.738 10.785H73.9v-6.361h26.69v6.361zm-55.012 0c-1.24 0-2.246.991-2.246 2.212 0 1.223 1.006 2.212 2.246 2.212H59.92c1.24 0 2.246-.989 2.246-2.212 0-1.221-1.006-2.212-2.246-2.212H45.578z" fill="#000"/></g><defs><clipPath id="clip0"><path fill="#fff" d="M0 0h143v151H0z"/></clipPath></defs></svg>