<svg width="834" height="700" fill="none" xmlns="http://www.w3.org/2000/svg"><path fill-rule="evenodd" clip-rule="evenodd" d="M91.188 688.696c-3.505-25.001-26.254-45.708-52.596-37.434.5-.169-16.98 8.582-19.367 10.978-4.52 4.558-2.883 15.433-10.278 19.107 2.156 17.01 4.878 23.698 11.94 36.558 7.92-1.103 13.927.544 16.593 6.875 6.427-5.868 12.672.132 19.087-1.299 19.475-4.308 26.12-19.909 34.621-34.785zm61.576-579.277c-18.498 3.661-21.805 18.17-29.504 29.566 2.946 17.54 19.852 15.486 28.788 24.755 29.367-8.108 30.172-47.591.716-54.321zm145-32c-18.498 3.66-21.805 18.17-29.504 29.566 2.946 17.54 19.852 15.486 28.788 24.755 29.367-8.108 30.172-47.59.716-54.321zM218.01 220.168c.053-29.361-45.973-19.681-43.771 3.528 2.214 23.592 43.707 25.45 43.771-3.528z" fill="#86CBFD" fill-opacity=".61"/><path fill-rule="evenodd" clip-rule="evenodd" d="M800.143 116.033C839.488 13.2 656.218-25.815 633.422 59.031c-23.264 86.204 127.844 158.476 166.721 57.002z" fill="#6CC1FF" fill-opacity=".59"/><path fill-rule="evenodd" clip-rule="evenodd" d="M647.289 307.37c-25.37 5.792-30.256 26.975-41.065 43.741 3.581 25.432 26.735 22.017 38.711 35.27 40.335-12.533 42.435-69.969 2.354-79.011z" fill="#86CBFD" fill-opacity=".61"/><path fill-rule="evenodd" clip-rule="evenodd" d="M678.102 401.633c-19.23 3.807-22.669 18.891-30.673 30.739 3.063 18.235 20.639 16.1 29.929 25.736 30.531-8.429 31.368-49.477.744-56.475z" fill="#6CC1FF" fill-opacity=".61"/><path fill-rule="evenodd" clip-rule="evenodd" d="M699.188 265.695c-3.505-25-26.254-45.707-52.596-37.433.5-.169-16.98 8.582-19.367 10.978-4.521 4.557-2.883 15.433-10.278 19.106 2.156 17.011 4.878 23.699 11.94 36.559 7.92-1.104 13.927.544 16.593 6.875 6.427-5.868 12.672.132 19.086-1.299 19.476-4.308 26.122-19.909 34.622-34.786z" fill="#86CBFD" fill-opacity=".61"/><path fill-rule="evenodd" clip-rule="evenodd" d="M749.406 492.159c-101.748 27.47-102.508 117.033-37.987 159.051 111.017-.272 144.923-146.711 37.987-159.051z" fill="#6CC1FF" fill-opacity=".59"/></svg>