<svg width="1047" height="700" fill="none" xmlns="http://www.w3.org/2000/svg"><path fill-rule="evenodd" clip-rule="evenodd" d="M733.494 223.688c-16.772 3.135-.331 14.827 0 0zm28.135 190.163c-.332-1.873-.63-3.736-.953-5.645-4.973.3-7.945 2.046-6.552 6.898 2.496-.394 5.001-.824 7.505-1.253zm6.715 108.861c-19.94.805-25.174 19.631-15.912 31.639 20.067 5.377 34.524-23.805 15.912-31.639zm-28.321-99.432c1.266 2.351 1.74 4.831 9.997 2.186 3.228-4.828-.646-12.736-4.408-14.692-5.855 2.454-11.383 5.109-9.369 13.163 1.932.86 3.793 1.7 3.78-.657zm-46.847 237.549c-29.318 9.185-26.039 51.735 4.468 49.434 18.929-1.417 31.191-22.687 15.572-45.089.848-5.997 5.877-9.051 9.369-13.163 35.054 8.899 55.509-23.837 44.935-53.882-11.167-31.798-62.036-25.845-76.293 5.137 8.932 25.696-7.568 34.33 1.949 57.563z" fill="#7AC7FF" fill-opacity=".51"/><path fill-rule="evenodd" clip-rule="evenodd" d="M711.06 480.265c-23.068 5.964-45.089 11.562-48.102 35.12-12.305 4.445-20.571 11.794-25.297 21.648 4.01 10.372 2.261 19.733 5.667 33.777-6.625 10.142-15.48 18.699-11.215 36.617 4.538 5.998 15.841 2.461 14.406 16.877 12.445-6.381 15.64-4.576 28.464-2.885-2.494-13.345 8.484-17.083 6.535-30.053 10.256-2.034 13.223-9.285 23.101-11.609-1.282-11.919-.237-22.19 9.028-26.614-2.541-19.961-4.155-50.603-2.587-72.878zm-18.595-75.99c-3.505-25.001-26.254-45.708-52.597-37.433.501-.17-16.979 8.581-19.366 10.978-4.521 4.557-2.883 15.433-10.278 19.106 2.156 17.011 4.878 23.699 11.939 36.559 7.92-1.104 13.927.544 16.593 6.875 6.428-5.868 12.672.131 19.087-1.3 19.476-4.307 26.122-19.908 34.622-34.785zM570.684 505.841c-9.183 1.714-12.764 7.434-12.806 15.659 7.085 2.581 16.531-5.211 12.806-15.659zm-81.961-17.027c-5.929-3.638-11.608-1.555-16.882 2.839.525 3.138 1.059 6.242 1.583 9.381 9.229 3.497 18.495.629 15.299-12.22zm457.912-600.867c.781 5.864 2.6 10.26 5.939 12.521 4.845 4.145 10.224-3.332 13.444-.344 1.884 6.843-8.465 4.98-7.794 10.967 3.694.23 10.866-4.451 10.008 2.15-5.566 3.215-12.236 5.602-15.632 10.347 3.563 2.7 8.627 3.336 15.64 1.23.969 7.85-13.194 4.929-15.632 10.347 8.056 12.406-.99 23.797-4.007 33.5 2.355 3.668 8.553 1.913 9.088 8.129-5.39 4.97-21.547 2.272-16.874 14.416.704 6.717 9.42 2.22 9.386 9.992-3.795 4.676-8.956-2.818-14.065-3.428-7.357 16.132 9.814 24.528 17.239 33.767 13.463.153 19.999-3.712 25.97 5.289-.629 6.169-10.145 6.01-9.368 13.163.47 4.756 3.863 5.4 6.892 6.553 1.876 5.74-4.213 5.816-4.059 10.336 3.768 7.879 15.168 4.975 20.958 9.98-2.034 4.617-15.053 1.394-14.057 8.15 9.024 12.475 3.858 34.583-12.754 38.823-4.282 10.884 8.606 8.796 10.671 17.509-9.463 2.474-13.254-3.058-21.579-2.139-8.418 6.359-3.275 21.704-1.226 27.225-20.863.709-38.134 4.431-33.712 28.842-9.057 4.215-6.615-7.731-14.398-5.3-18.837 9.147-12.927 35.93-28.683 47.307 9.484 29.866.262 46.447-6.466 64.759 2.429 3.535 5.085 6.789 7.514 10.324-16.125 12.189-17.154 35.139-34.649 46.353-5.061-1.356-7.535-6.421-14.398-5.3 9.877 16.651 8.235 25.471 7.583 45.031-9.143-3.816-23.838-.504-18.746 14.75-6.84 1.887-6.186-6.781-14.065-3.427-16.567 25.163 6.669 68.544-20.191 86.395-7.804-2.584-18.018-1.981-26.591 2.553-3.391-7.588-9.131-11.935-19.095-10.278-18.279-20.686-12.093-54.817 21.16-57.596-5.967-16.096 15.725-41.556-6.349-60.678-7.563 7.272-15.863 6.68-23.137 11.6.88-9.936-6.43-23.849-1.932-34.409-16.955-14.866 12.258-27.342 13.699-44.755.823-9.723-6.623-17.753-4.416-26.27 5.319-20.701 31.463-30.925 56.244-21.059-2.672-10.697 7.18-12.498 5.914-22.211-11.604.837-19.494-3.554-25.025-11.222 2.511-12.914-5.912-15.171 2.765-29.431-4.873-4.607-8.875-12.321-11.905-1.862-.675-2.154-.567-5.389-2.826-5.311-3.175 3.78-11.356 4.016-16.261 6.611-.943-8.374 16.18-3.9 13.103-13.795-5.283-1.378-7.071 7.138-7.802-.61 4.379-4.027 8.249-8.417 4.671-18.142 8.08-5.805 18.874-9.706 15.291-23.797 4.292-4.126 13.097-4.992 15.632-10.348 5.013-30.46.978-59.853 10.813-84.808-4.754-3.21.632-6.321-3.445-9.083 6.586-6.32 22.982-5.645 15.623-21.925-12.236 5.602-12.899-5.088-21.912-4.012 7.784-16.169-4.165-24.38-10.365-38.755 10.526-4.884 7.068-19.017 1.226-27.225 7.408-1.316 7.976-7.54 11.564-11.588.034-7.771-8.682-3.275-9.421-10.001 3.588-4.048 11.963-4.726 7.164-14.703 11.221-.258 11.178-15.526 8.118-20.672 5.709-4.315 8.47-.463 16.882-2.839-.332-1.873-.629-3.736-.953-5.645 18.735-2.532 17.613-14.484 38.454-12.277.162-4.853-1.978-11.308 3.726-12.209 5.074.6.961 14.11 7.846 12.197 19.292.767 24.994-7.914 37.491-17.887.618 7.035-7.116 8.151-2.774 17.854 15.385 6.855 34.257-.157 43.439-5.401-1.289 6.789-11.087 7.542-8.739 16.9 5.92 12.023 26.331.262 32.819.254-5.704 5.151-15.17 7.776-18.673 14.618zm-95.238 317.071c2.386 5.535-4.538 4.477-2.152 10.012 5.825 1.903 10.468 5.386 16.593 6.875 1.193-5.866-3.745-20.283-14.441-16.887z" fill="#7AC7FF" fill-opacity=".51"/><path fill-rule="evenodd" clip-rule="evenodd" d="M159.335 130.356c-13.925-2.524-20.455 9.696-15.9 19.437 13.058 6.821 27.571-11.141 15.9-19.437zm-68.962 89.752c-21.709 1.827-26.011 31.78-4.543 34.901 13.32 1.944 25.091-10.882 17.742-28.798 1.513-4.019 5.465-5.356 8.517-7.662 22.886 11.574 42.099-7.921 39.422-30.347-2.817-23.731-38.943-27.47-53.595-8.232 2.213 19.163-10.54 22.589-7.543 40.138zm185.448-103.996c-25.011-2.226-48.876-4.431-54.64 14.304-13.48-.133-23.014 3.423-29.085 10.175 3.097 9.917.224 17.188 2.28 29.982-8.107 6.401-18.395 10.781-15.857 27.078 4.134 6.427 16.456 7.005 13.36 18.597 13.84-1.441 17.016 1.065 30.37 6.484-1.169-11.925 10.832-11.617 10.196-23.058 11.052 1.505 14.98-3.624 25.665-2.479-.047-10.355 2.183-18.607 12.45-19.407-.494-17.465 1.162-43.562 5.261-61.676zM74.753 477.215c15.325-54.138-63.573-47.376-65.576-11.558-1.724 30.684 55.266 47.904 65.576 11.558zM58.519 273.681c4.571-20.311-28.778-20.723-30.839-4.321-2.112 16.669 26.318 24.365 30.839 4.321z" fill="#78C6FF" fill-opacity=".47"/><path fill-rule="evenodd" clip-rule="evenodd" d="M587.01 601.168c.053-29.361-45.973-19.681-43.771 3.528 2.214 23.592 43.707 25.45 43.771-3.528z" fill="#7AC7FF" fill-opacity=".51"/></svg>