<svg width="41" height="40" fill="none" xmlns="http://www.w3.org/2000/svg"><circle cx="20.355" cy="20" r="20" fill="#000"/><path d="M30.09 11.997c0 .928-.758 1.68-1.693 1.68a1.69 1.69 0 01-1.695-1.68c0-.929.76-1.683 1.695-1.683s1.693.752 1.693 1.683z" fill="#fff"/><path d="M26.054 33.944H14.656c-5.058 0-9.175-4.087-9.175-9.106v-9.97c0-5.02 4.117-9.106 9.175-9.106h11.398c5.058 0 9.174 4.086 9.174 9.106v9.97c0 5.02-4.116 9.106-9.174 9.106zM14.656 7.786c-3.936 0-7.136 3.175-7.136 7.082v9.97c0 3.906 3.2 7.082 7.136 7.082h11.398c3.934 0 7.136-3.176 7.136-7.082v-9.97c0-3.904-3.202-7.082-7.136-7.082H14.656z" fill="#fff"/><path d="M20.355 27.959c-4.505 0-8.165-3.636-8.165-8.107 0-4.471 3.663-8.105 8.165-8.105 4.502 0 8.165 3.636 8.165 8.105 0 4.47-3.66 8.107-8.165 8.107zm0-14.188c-3.378 0-6.13 2.728-6.13 6.083 0 3.353 2.75 6.081 6.13 6.081 3.378 0 6.126-2.728 6.126-6.08 0-3.356-2.748-6.084-6.126-6.084z" fill="#fff"/></svg>