<svg width="124" height="151" fill="none" xmlns="http://www.w3.org/2000/svg"><path d="M121.789 17.355c-.041 5.153-2.81 9.644-6.921 12.119a14.15 14.15 0 01-7.448 2.029c-7.87-.065-14.198-6.506-14.133-14.387.02-2.527.698-4.895 1.868-6.945 2.474-4.338 7.156-7.246 12.504-7.199 7.869.065 14.198 6.503 14.13 14.383z" fill="#585E60"/><path d="M114.868 29.472a14.15 14.15 0 01-7.448 2.03c-7.87-.066-14.198-6.507-14.133-14.387.02-2.527.698-4.896 1.868-6.945a63.594 63.594 0 0119.713 19.302z" fill="#414749"/><path d="M30.713 16.597c-.065 7.877-6.5 14.212-14.372 14.147a14.185 14.185 0 01-6.85-1.817c-4.382-2.465-7.328-7.181-7.281-12.566.065-7.88 6.497-14.215 14.37-14.148 5.488.045 10.229 3.194 12.571 7.769a14.185 14.185 0 011.562 6.615z" fill="#585E60"/><path d="M29.151 9.981a14.183 14.183 0 011.562 6.615c-.065 7.878-6.5 14.213-14.372 14.148a14.186 14.186 0 01-6.85-1.817A63.576 63.576 0 0129.15 9.981z" fill="#414749"/><path d="M120.64 63.845c0 29.54-21.802 53.985-50.178 58.093a59.343 59.343 0 01-8.462.605c-12.517 0-24.117-3.925-33.64-10.614-15.117-10.617-25-28.197-25-48.084C3.36 31.429 29.615 5.147 62 5.147c32.385 0 58.64 26.282 58.64 58.698z" fill="#F9E8D4"/><path d="M79.452 108.712l-8.99 13.226a59.343 59.343 0 01-8.462.605c-12.517 0-24.117-3.925-33.64-10.614a59.748 59.748 0 01-3.331-10.295 6.031 6.031 0 011.166-5.117 6.137 6.137 0 014.75-2.292c1.285 0 2.519.404 3.566 1.17 3.87 2.822 9.407 7.592 13.815 14.305l.534.821 20.007-11.513 10.585 9.704z" fill="#EFCDB1"/><path d="M120.64 63.845c0 32.416-26.255 58.697-58.64 58.697-1 0-1.993-.024-2.977-.072 31-1.557 55.66-27.209 55.66-58.625S90.023 6.777 59.023 5.22A60.285 60.285 0 0162 5.147c32.385 0 58.64 26.281 58.64 58.698z" fill="#EFCDB1"/><path d="M75.683 52.571S64.554 56.453 69.01 70.77c4.455 14.316 14.622 24.164 24.1 19.24 9.476-4.924 7.226-24.58.846-33.233-6.381-8.653-18.272-4.205-18.272-4.205zm-27.367 0s11.13 3.882 6.674 18.198c-4.455 14.316-14.622 24.164-24.099 19.24-9.476-4.924-7.226-24.58-.846-33.233 6.38-8.653 18.271-4.205 18.271-4.205z" fill="#585E60"/><path d="M62 92.084a6.293 6.293 0 006.29-6.297A6.293 6.293 0 0062 79.491a6.293 6.293 0 00-6.29 6.296A6.293 6.293 0 0062 92.083z" fill="#8B5016"/><path d="M29.472 100.63c-.306-1.36 1.232-2.37 2.358-1.55 3.26 2.378 8.551 6.825 12.689 13.125a91.583 91.583 0 013.708 6.161 63.45 63.45 0 012.682 5.474l-6.296 4.143c-1.894-1.996-3.964-4.523-6.03-7.413a92.36 92.36 0 01-2.105-3.074 44.574 44.574 0 01-1.83-3.046c-2.916-5.313-4.43-10.513-5.176-13.82z" fill="#009655"/><path d="M38.583 120.571l7.481-5.929a87.08 87.08 0 012.163 3.725 63.476 63.476 0 012.681 5.474l-6.296 4.143c-1.893-1.997-3.964-4.523-6.03-7.413z" fill="#006B42"/><path d="M34.648 114.45c2.792.666 6.41 1.685 13.579 3.917a63.466 63.466 0 012.681 5.473l-6.296 4.144c-2.54-2.677-5.392-6.306-8.134-10.487a44.19 44.19 0 01-1.83-3.047z" fill="#006B42"/><path d="M13.913 119.065c-1.371-.695-.945-2.756.59-2.849 4.025-.245 10.172-.242 16.789 1.129 3.116.644 6.047 1.378 8.656 2.143 1.491.437 2.874.885 4.129 1.334l-1.19 5.756c-2.926-.187-6.43-.63-10.223-1.318a120.16 120.16 0 01-2.89-.564c-6.617-1.37-12.262-3.808-15.86-5.631z" fill="#00C37A"/><path d="M32.664 125.26l7.284-5.772c1.492.437 2.874.884 4.129 1.334l-1.19 5.756c-2.926-.187-6.43-.63-10.223-1.318z" fill="#009655"/><path d="M25.698 135.312l45.45-37.099 8.304 10.499L34 145.81l-8.303-10.498z" fill="#A4E869"/><path d="M25.698 135.311l5.5-4.359c.145.152.284.313.416.48l7.499 9.481c.138.175.269.355.387.539l-5.499 4.358-8.303-10.499z" fill="#60DC4D"/><path d="M71.149 98.213l2.392 3.025-45.45 37.097-2.393-3.024 45.45-37.098z" fill="#60DC4D"/><path d="M28.832 133.638l7.498 9.479a3.5 3.5 0 01-.57 4.914 3.492 3.492 0 01-4.91-.571l-7.498-9.479a3.502 3.502 0 01.571-4.915 3.493 3.493 0 014.91.572z" fill="#A4E869"/><path d="M77.771 94.6c-4.653 0-8.426 3.777-8.426 8.435s3.773 8.434 8.426 8.434l5.293-.64V94.601H77.77z" fill="#F9E8D4"/><path d="M59.529 7.417c.892-.038 1.7-.056 2.471-.056 28.79 0 52.897 21.567 56.077 50.167a2.21 2.21 0 104.392-.49 60.66 60.66 0 00-8.379-24.685c5.88-2.564 9.855-8.428 9.909-14.98a16.369 16.369 0 00-4.723-11.692A16.343 16.343 0 00107.678.759a16.49 16.49 0 00-15.387 10.257A60.696 60.696 0 0059.34 2.998a2.211 2.211 0 00-2.113 2.304 2.207 2.207 0 002.302 2.115zm48.112-2.234a11.952 11.952 0 018.484 3.6 11.971 11.971 0 013.455 8.553c-.042 5.056-3.273 9.554-7.966 11.246a61.18 61.18 0 00-15.497-15.175 12.034 12.034 0 0111.524-8.224zm13.035 59.107a2.199 2.199 0 00-2.306 2.11c-1.223 27.485-22.32 49.967-49.078 53.457l7.615-6.215c.285.023.573.038.864.038a2.21 2.21 0 002.21-2.212 2.21 2.21 0 00-2.21-2.212c-3.427 0-6.216-2.791-6.216-6.222 0-3.431 2.789-6.222 6.216-6.222a2.21 2.21 0 002.21-2.212 2.21 2.21 0 00-2.21-2.212c-3.722 0-7.002 1.926-8.903 4.833l-4.658 3.801v-7.02c3.619-.976 6.29-4.289 6.29-8.215 0-4.692-3.813-8.508-8.5-8.508-4.687 0-8.5 3.816-8.5 8.508 0 3.926 2.672 7.238 6.29 8.215v10.627l-11.514 9.398a95.426 95.426 0 00-1.91-3.036c-4.221-6.427-9.527-10.998-13.236-13.7a3.686 3.686 0 00-4.23-.102 3.694 3.694 0 00-1.583 3.928 57.292 57.292 0 003.04 9.512C14.915 100.189 5.57 82.819 5.57 63.844c0-26.738 18.967-50.014 45.098-55.346a2.212 2.212 0 00-.882-4.334 60.487 60.487 0 00-17.84 6.723C29.643 4.512 23.532.057 16.598 0h-.145A16.337 16.337 0 004.917 4.73 16.378 16.378 0 00.001 16.341c-.058 6.866 4.074 12.916 10.281 15.413a61.096 61.096 0 00-9.131 32.09c0 11.415 3.174 22.544 9.178 32.184A61.132 61.132 0 0028.33 114.58c-5.527-.811-10.518-.78-13.963-.573a3.678 3.678 0 00-3.413 2.961 3.68 3.68 0 001.96 4.069c3.69 1.871 9.533 4.4 16.414 5.826.875.18 1.742.346 2.604.505l-3.81 3.109a5.667 5.667 0 00-5.57.855 5.673 5.673 0 00-2.126 3.817 5.678 5.678 0 001.194 4.204l7.498 9.48a5.665 5.665 0 003.814 2.128 5.655 5.655 0 004.2-1.195 5.675 5.675 0 002.125-3.818 5.743 5.743 0 00-.033-1.547l24.13-19.696c.106.015.213.026.323.026l.063-.001c15.41-.433 29.953-6.642 40.95-17.482 10.985-10.829 17.411-25.265 18.095-40.65a2.211 2.211 0 00-2.109-2.308zM57.919 85.788A4.087 4.087 0 0162 81.703a4.088 4.088 0 014.081 4.085A4.087 4.087 0 0162 89.872a4.087 4.087 0 01-4.08-4.084zm-53.5-69.41a11.984 11.984 0 013.598-8.495 11.926 11.926 0 018.544-3.458c5.396.044 10.11 3.725 11.515 8.866A61.099 61.099 0 0015.06 25.083c-.776.94-1.52 1.905-2.235 2.887A12.005 12.005 0 014.42 16.378zm67.56 95.578L37.05 140.465l-5.56-7.03 35.72-29.154a10.658 10.658 0 004.768 7.675zm-29.306 1.465a91.292 91.292 0 012.142 3.432l-3.89 3.174a90.878 90.878 0 01-2.602-3.744c-3.384-5.156-5.254-10.599-6.222-14.22 2.936 2.324 7.183 6.199 10.572 11.358zm-12.452 9.11c-4.996-1.036-9.416-2.702-12.757-4.216 3.676-.058 8.397.165 13.381 1.195 1.732.359 3.452.758 5.128 1.185.502.725 1.01 1.437 1.522 2.132l-1.002.818c-2.03-.302-4.132-.673-6.272-1.114zm4.645 22.906a1.275 1.275 0 01-.478.86c-.27.214-.605.31-.946.269a1.27 1.27 0 01-.86-.479l-7.497-9.48a1.278 1.278 0 01-.27-.947 1.281 1.281 0 011.425-1.129c.341.04.647.21.86.479l7.497 9.48c.214.269.31.606.27.947z" fill="#000"/><path d="M66.9 71.427c3.219 10.344 9.127 18.183 15.805 20.97 1.765.737 3.552 1.105 5.32 1.105 2.083 0 4.14-.511 6.101-1.53 3.414-1.774 5.797-5.206 6.891-9.924 1.921-8.284-.4-19.961-5.285-26.586C88.446 45.58 75.46 50.294 74.91 50.5c-.851.325-12.89 5.245-8.01 20.928zm5.38-13.591c1.787-2.304 4.121-3.173 4.144-3.181l.028-.01c.423-.156 10.429-3.738 15.725 3.445 4.135 5.609 6.17 15.907 4.535 22.957-.553 2.385-1.804 5.535-4.622 6.999-2.462 1.279-5.047 1.37-7.684.268-5.403-2.254-10.495-9.23-13.287-18.203-1.588-5.104-1.198-9.234 1.162-12.275zM49.09 50.5c-.55-.206-13.537-4.92-20.823 4.962-1.64 2.224-3.058 5.137-4.103 8.425a2.21 2.21 0 104.211 1.342c.9-2.833 2.093-5.301 3.448-7.14 5.296-7.182 15.302-3.6 15.72-3.446l.046.017c.372.13 9.067 3.318 5.291 15.452-2.792 8.973-7.883 15.948-13.287 18.203-2.636 1.1-5.222 1.01-7.684-.269-3.61-1.876-5.531-7.165-5.137-14.147a2.21 2.21 0 10-4.413-.25c-.503 8.902 2.236 15.58 7.514 18.323 1.962 1.02 4.018 1.53 6.102 1.53 1.767 0 3.554-.367 5.319-1.104 6.678-2.787 12.587-10.627 15.806-20.97 4.88-15.684-7.158-20.604-8.01-20.929z" fill="#000"/><path d="M74.858 72.659c1.22 0 2.21-.99 2.21-2.212v-.187a2.21 2.21 0 10-4.42 0v.187a2.21 2.21 0 002.21 2.212zm-23.507-2.212v-.187a2.21 2.21 0 10-4.42 0v.187a2.21 2.21 0 104.42 0z" fill="#000"/></svg>