<svg width="41" height="40" fill="none" xmlns="http://www.w3.org/2000/svg"><circle cx="20.355" cy="20" r="20" fill="#000"/><path d="M31.325 12.631c-.537.149-.963.125-.963.125l.018-.101c.501-.4 1.766-1.634 1.933-2.211.072-.25-.014-.336-.014-.343l-1.615.686-1.351.612C28.4 10.41 26.987 9.78 25.41 9.78c-2.808 0-5.087 1.992-5.087 4.45 0 .45.068 1.27.208 1.68 0 .13.005-.13 0 0-1.808-.05-4.128-.793-6.194-1.841-4.073-2.065-4.328-3.496-4.328-3.496-.639.679-.969 2.931-.322 4.697.416 1.132 1.842 2.146 1.842 2.146s-.639.01-1.307-.213c-.667-.226-.922-.45-.922-.45-.397.97.4 2.702 1.78 3.946.802.725 2.27 1.18 2.27 1.18l-2.291.066c-.13 2.226 4.67 3.552 4.67 3.552-1.407 1.085-3.039 1.743-4.79 1.743a9.081 9.081 0 01-2.616-.385c2.312 1.907 5.284 3.225 8.516 3.056 8.573-.452 13.413-7.829 13.645-15.075l.01.016s.403-.2 1.26-1.062c.857-.86 1.392-1.864 1.392-1.864s-1.283.556-1.82.704z" fill="#fff"/><path d="M32.3 10.1c.005.14 0 .014 0 0z" fill="#fff"/></svg>