<svg width="41" height="40" fill="none" xmlns="http://www.w3.org/2000/svg"><circle cx="20.355" cy="20" r="20" fill="#000"/><path d="M31.691 14.387a2.911 2.911 0 00-2.06-2.06c-1.813-.486-9.109-.486-9.109-.486s-7.295 0-9.11.487a2.911 2.911 0 00-2.058 2.059c-.49 1.816-.49 5.607-.49 5.607s0 3.792.49 5.608a2.911 2.911 0 002.059 2.059c1.822.486 9.11.486 9.11.486s7.295 0 9.109-.486a2.911 2.911 0 002.06-2.06c.489-1.815.489-5.607.489-5.607s0-3.791-.49-5.607z" fill="#fff"/><path d="M17.986 23.683V16.02l7.018 3.832-7.018 3.83z" fill="#000"/></svg>