<svg width="156" height="159" fill="none" xmlns="http://www.w3.org/2000/svg"><g filter="url(#filter0_d)"><path d="M142.335 57.23H11.949c-5.33 0-7.356-6.98-2.86-9.848l13.954-8.895 2.13-1.358L74.281 5.82a5.305 5.305 0 015.717 0l22.901 14.6 36.714 23.406 5.578 3.555c4.499 2.867 2.473 9.847-2.857 9.847z" fill="#F9F3F1"/><path d="M39.658 67.337h76.604v67.307H39.658V67.337z" fill="#CDBFBA"/><path d="M59.355 134.051v-32.658c0-4.728 2.94-8.557 6.563-8.557h22.63c3.623 0 6.563 3.829 6.563 8.557v32.658H59.355z" fill="#F9F3F1"/><path d="M74.79 92.837c-3.623 0-6.563 3.828-6.563 8.557v32.657h-8.873v-32.657c0-4.73 2.94-8.557 6.563-8.557h8.873z" fill="#E1D3CE"/><path d="M140.729 57.148v8.611c0 1.03-.835 1.866-1.861 1.866H16.456c-1.03 0-1.86-.837-1.86-1.866v-8.611h126.133zm.514 91.313H15.147a4.776 4.776 0 01-4.77-4.782v-5.439a4.776 4.776 0 014.77-4.782h126.096a4.776 4.776 0 014.77 4.782v5.439a4.776 4.776 0 01-4.77 4.782z" fill="#F9F3F1"/><path d="M78.122 48.684c7.521 0 13.619-6.112 13.619-13.653 0-7.54-6.098-13.653-13.62-13.653-7.52 0-13.618 6.113-13.618 13.653S70.6 48.684 78.122 48.684z" fill="#FAF8F8"/><path d="M21.312 67.625h18.766v57.531H21.312V67.625zm94.474 0h18.767v57.235h-18.767V67.625z" fill="#F9F3F1"/><path d="M16.588 130.099v-1.88c0-1.855 1.5-3.359 3.351-3.359h20.213a3.355 3.355 0 013.351 3.359v1.88c0 1.855-1.5 3.359-3.35 3.359H19.94a3.355 3.355 0 01-3.352-3.359zm94.646 0v-1.88a3.356 3.356 0 013.351-3.359h20.213a3.355 3.355 0 013.351 3.359v1.88c0 1.855-1.5 3.359-3.351 3.359h-20.213a3.355 3.355 0 01-3.351-3.359z" fill="#F9F3F1"/><path d="M128.576 44.5c11.494 0 20.812-9.394 20.812-20.98 0-11.588-9.318-20.98-20.812-20.98-11.495 0-20.813 9.392-20.813 20.98 0 11.586 9.318 20.98 20.813 20.98z" fill="#FFE177"/><path d="M128.673 36.048c6.835 0 12.375-5.586 12.375-12.476 0-6.89-5.54-12.475-12.375-12.475s-12.376 5.586-12.376 12.475c0 6.89 5.541 12.476 12.376 12.476z" fill="#FFC344"/><path d="M24.019 148.462h-8.873a4.776 4.776 0 01-4.768-4.783v-5.438a4.776 4.776 0 014.768-4.783h8.873a4.776 4.776 0 00-4.768 4.783v5.438a4.776 4.776 0 004.768 4.783zm4.794-15.004H19.94a3.354 3.354 0 01-3.351-3.359v-1.88c0-1.856 1.5-3.359 3.351-3.359h8.873a3.354 3.354 0 00-3.351 3.359v1.88c0 1.856 1.5 3.359 3.351 3.359z" fill="#E1D3CE"/><path d="M21.312 67.625h8.873v57.531h-8.873V67.625zm4.018 0h-8.874c-1.03 0-1.86-.837-1.86-1.865v-8.611h8.873v8.61c0 1.03.831 1.866 1.86 1.866z" fill="#E1D3CE"/><path d="M82.557 47.942c-1.39.48-2.884.742-4.436.742-7.522 0-13.617-6.111-13.617-13.652 0-7.54 6.095-13.654 13.617-13.654 1.552 0 3.046.261 4.436.741a13.657 13.657 0 00-9.18 12.913 13.653 13.653 0 009.18 12.91z" fill="#F3EAE6"/><path d="M20.822 57.23h-8.873c-5.33 0-7.356-6.98-2.86-9.848l9.76-6.22-.887.871c-4.496 4.424-2.47 15.196 2.86 15.196z" fill="#E1D3CE"/><path d="M132.548 44.117c-1.29.253-2.625.383-3.989.383-11.495-.008-20.804-9.41-20.796-20.997.008-11.587 9.335-20.972 20.83-20.964 1.351 0 2.673.133 3.953.385-9.585 1.87-16.828 10.37-16.836 20.58-.007 10.221 7.238 18.743 16.838 20.613z" fill="#FFD064"/><path d="M115.787 67.625h8.873v57.235h-8.873V67.625zm7.672 65.833h-8.873a3.354 3.354 0 01-3.351-3.359v-1.88c0-1.856 1.5-3.359 3.351-3.359h8.873a3.354 3.354 0 00-3.351 3.359v1.88c0 1.856 1.5 3.359 3.351 3.359z" fill="#E1D3CE"/><path d="M146.437 45.687l-4.312-2.75C148.099 38.635 152 31.614 152 23.694 152 10.629 141.398 0 128.366 0c-11.554 0-21.191 8.356-23.23 19.356L81.026 3.983a7.56 7.56 0 00-8.098 0L7.515 45.687c-2.903 1.85-4.157 5.186-3.196 8.497.957 3.299 3.783 5.433 7.205 5.449v6.412a4.094 4.094 0 004.085 4.095h2.65v51.982a5.082 5.082 0 00-4.366 5.025v4.427a7.01 7.01 0 00-6.06 6.943v5.477c0 3.863 3.136 7.006 6.99 7.006h102.962a2.221 2.221 0 002.218-2.224 2.221 2.221 0 00-2.218-2.224H14.822a2.558 2.558 0 01-2.552-2.558v-5.477a2.559 2.559 0 012.552-2.559h126.453a2.559 2.559 0 012.552 2.559v5.477a2.558 2.558 0 01-2.552 2.558h-13.434a2.221 2.221 0 00-2.218 2.224c0 1.228.993 2.224 2.218 2.224h13.434c3.853 0 6.989-3.143 6.989-7.006v-5.477c0-3.863-3.136-7.006-6.989-7.006h-.753v-4.364a5.085 5.085 0 00-4.547-5.053V70.14h2.369a4.095 4.095 0 004.085-4.095v-6.412c3.422-.016 6.248-2.15 7.205-5.45.961-3.31-.294-6.646-3.197-8.496zm-18.071-41.24c10.585 0 19.197 8.634 19.197 19.246 0 10.612-8.612 19.245-19.197 19.245-10.585 0-19.197-8.634-19.197-19.245 0-10.612 8.612-19.245 19.197-19.245zM36.893 70.14v51.926H22.696V70.14h14.197zm4.47 61.371H18.33v-4.364c0-.349.287-.633.64-.633h21.75c.354 0 .642.284.642.633v4.364zm51.552 0H61.502v-30.138c0-3.39 1.997-6.255 4.361-6.255h22.69c2.364 0 4.362 2.865 4.362 6.255v30.138zm43.171 0h-23.032v-4.364c0-.349.287-.633.639-.633h21.754c.352 0 .639.284.639.633v4.364zm-4.548-9.445h-14.196V70.14h14.196v51.926zm13.836-69.125c-.315 1.086-1.264 2.246-2.984 2.246H59.075a2.22 2.22 0 00-2.218 2.224 2.22 2.22 0 002.218 2.224h78.917v6.057h-34.995a2.22 2.22 0 00-2.218 2.224 2.22 2.22 0 002.218 2.224h9.908v51.994a5.082 5.082 0 00-4.287 5.013v4.364H97.351v-30.138c0-5.901-3.947-10.703-8.798-10.703h-22.69c-4.851 0-8.798 4.802-8.798 10.703v30.138H45.8v-4.364a5.086 5.086 0 00-4.47-5.041V70.14h51.612a2.22 2.22 0 002.218-2.224 2.22 2.22 0 00-2.218-2.224H15.96v-6.058h33.06a2.22 2.22 0 002.218-2.224 2.22 2.22 0 00-2.218-2.223H11.563c-1.72 0-2.669-1.16-2.984-2.246-.315-1.086-.135-2.576 1.317-3.501L75.308 7.736a3.115 3.115 0 013.336 0L104.75 24.38c.365 12.747 10.815 23.006 23.616 23.006 3.338 0 6.514-.702 9.396-1.959l6.294 4.013c1.453.925 1.633 2.416 1.318 3.502z" fill="#000"/><path d="M78.048 19.166c-8.752 0-15.873 7.138-15.873 15.913 0 8.774 7.121 15.912 15.873 15.912 8.753 0 15.874-7.138 15.874-15.912 0-8.775-7.12-15.913-15.874-15.913zm0 27.378c-6.306 0-11.436-5.143-11.436-11.465s5.13-11.465 11.436-11.465 11.437 5.143 11.437 11.465-5.13 11.465-11.437 11.465zm50.318-8.264c8.024 0 14.551-6.544 14.551-14.588 0-8.043-6.527-14.587-14.551-14.587-8.024 0-14.551 6.544-14.551 14.587 0 8.044 6.527 14.588 14.551 14.588zm0-24.727c5.577 0 10.115 4.548 10.115 10.14 0 5.59-4.538 10.14-10.115 10.14s-10.115-4.549-10.115-10.14c0-5.592 4.538-10.14 10.115-10.14z" fill="#000"/></g><defs><filter id="filter0_d" x="0" y="0" width="156" height="159" filterUnits="userSpaceOnUse" color-interpolation-filters="sRGB"><feFlood flood-opacity="0" result="BackgroundImageFix"/><feColorMatrix in="SourceAlpha" values="0 0 0 0 0 0 0 0 0 0 0 0 0 0 0 0 0 0 127 0"/><feOffset dy="4"/><feGaussianBlur stdDeviation="2"/><feColorMatrix values="0 0 0 0 0 0 0 0 0 0 0 0 0 0 0 0 0 0 0.25 0"/><feBlend in2="BackgroundImageFix" result="effect1_dropShadow"/><feBlend in="SourceGraphic" in2="effect1_dropShadow" result="shape"/></filter></defs></svg>